<?xml version="1.0" encoding="UTF-8" standalone="no"?>
<!DOCTYPE svg PUBLIC "-//W3C//DTD SVG 1.1//EN"
 "http://www.w3.org/Graphics/SVG/1.1/DTD/svg11.dtd">
<!-- Generated by graphviz version 15.0.0 (20260523.1842)
 -->
<!-- Title: architecture Pages: 1 -->
<svg width="1028pt" height="1355pt"
 viewBox="0.00 0.00 1028.00 1355.00" xmlns="http://www.w3.org/2000/svg" xmlns:xlink="http://www.w3.org/1999/xlink">
<g id="graph0" class="graph" transform="scale(1 1) rotate(0) translate(4 1351.1)">
<title>architecture</title>
<text xml:space="preserve" text-anchor="start" x="359.62" y="-1322.35" font-family="Helvetica,sans-Serif" font-weight="bold" font-size="24.00">Data Pipeline Architecture</text>
<g id="clust1" class="cluster">
<title>cluster_source</title>
<path fill="#f2f8fc" stroke="#c3c2b7" d="M20,-1204.65C20,-1204.65 527,-1204.65 527,-1204.65 533,-1204.65 539,-1210.65 539,-1216.65 539,-1216.65 539,-1290.35 539,-1290.35 539,-1296.35 533,-1302.35 527,-1302.35 527,-1302.35 20,-1302.35 20,-1302.35 14,-1302.35 8,-1296.35 8,-1290.35 8,-1290.35 8,-1216.65 8,-1216.65 8,-1210.65 14,-1204.65 20,-1204.65"/>
<text xml:space="preserve" text-anchor="middle" x="273.5" y="-1283.15" font-family="Helvetica,sans-Serif" font-weight="bold" font-size="16.00">Data Sources</text>
</g>
<g id="clust2" class="cluster">
<title>cluster_lake</title>
<path fill="#f4f4f1" stroke="#c3c2b7" d="M233,-1036.45C233,-1036.45 493,-1036.45 493,-1036.45 499,-1036.45 505,-1042.45 505,-1048.45 505,-1048.45 505,-1122.15 505,-1122.15 505,-1128.15 499,-1134.15 493,-1134.15 493,-1134.15 233,-1134.15 233,-1134.15 227,-1134.15 221,-1128.15 221,-1122.15 221,-1122.15 221,-1048.45 221,-1048.45 221,-1042.45 227,-1036.45 233,-1036.45"/>
<text xml:space="preserve" text-anchor="middle" x="363" y="-1114.95" font-family="Helvetica,sans-Serif" font-weight="bold" font-size="16.00">Data Lake</text>
</g>
<g id="clust3" class="cluster">
<title>cluster_warehouse</title>
<path fill="#f2faf6" stroke="#c3c2b7" d="M37,-214.7C37,-214.7 1000,-214.7 1000,-214.7 1006,-214.7 1012,-220.7 1012,-226.7 1012,-226.7 1012,-953.95 1012,-953.95 1012,-959.95 1006,-965.95 1000,-965.95 1000,-965.95 37,-965.95 37,-965.95 31,-965.95 25,-959.95 25,-953.95 25,-953.95 25,-226.7 25,-226.7 25,-220.7 31,-214.7 37,-214.7"/>
<text xml:space="preserve" text-anchor="middle" x="518.5" y="-946.75" font-family="Helvetica,sans-Serif" font-weight="bold" font-size="16.00">Data Warehouse (3NF)</text>
</g>
<g id="clust5" class="cluster">
<title>cluster_output</title>
<path fill="#fdf5ef" stroke="#c3c2b7" d="M321,-8C321,-8 658,-8 658,-8 664,-8 670,-14 670,-20 670,-20 670,-194.7 670,-194.7 670,-200.7 664,-206.7 658,-206.7 658,-206.7 321,-206.7 321,-206.7 315,-206.7 309,-200.7 309,-194.7 309,-194.7 309,-20 309,-20 309,-14 315,-8 321,-8"/>
<text xml:space="preserve" text-anchor="middle" x="489.5" y="-187.5" font-family="Helvetica,sans-Serif" font-weight="bold" font-size="16.00">Modeling Tables</text>
</g>
<!-- src_census -->
<g id="node1" class="node">
<title>src_census</title>
<path fill="#dceef7" stroke="#2a78d6" d="M246.32,-1259.85C246.32,-1259.85 37.68,-1259.85 37.68,-1259.85 31.68,-1259.85 25.68,-1253.85 25.68,-1247.85 25.68,-1247.85 25.68,-1234.65 25.68,-1234.65 25.68,-1228.65 31.68,-1222.65 37.68,-1222.65 37.68,-1222.65 246.32,-1222.65 246.32,-1222.65 252.32,-1222.65 258.32,-1228.65 258.32,-1234.65 258.32,-1234.65 258.32,-1247.85 258.32,-1247.85 258.32,-1253.85 252.32,-1259.85 246.32,-1259.85"/>
<text xml:space="preserve" text-anchor="middle" x="142" y="-1242.95" font-family="Helvetica,sans-Serif" font-size="14.00">Census Bureau</text>
<text xml:space="preserve" text-anchor="middle" x="142" y="-1227.95" font-family="Helvetica,sans-Serif" font-size="14.00">SAIPE · ACS 1yr · CBSA delineation</text>
</g>
<!-- lake -->
<g id="node4" class="node">
<title>lake</title>
<path fill="#ededea" stroke="#8f8d87" d="M475.2,-1091.65C475.2,-1091.65 250.8,-1091.65 250.8,-1091.65 244.8,-1091.65 238.8,-1085.65 238.8,-1079.65 238.8,-1079.65 238.8,-1066.45 238.8,-1066.45 238.8,-1060.45 244.8,-1054.45 250.8,-1054.45 250.8,-1054.45 475.2,-1054.45 475.2,-1054.45 481.2,-1054.45 487.2,-1060.45 487.2,-1066.45 487.2,-1066.45 487.2,-1079.65 487.2,-1079.65 487.2,-1085.65 481.2,-1091.65 475.2,-1091.65"/>
<text xml:space="preserve" text-anchor="middle" x="363" y="-1074.75" font-family="Helvetica,sans-Serif" font-size="14.00">Raw retrievals and intermediate results</text>
<text xml:space="preserve" text-anchor="middle" x="363" y="-1059.75" font-family="Helvetica,sans-Serif" font-size="14.00">41 tables, unnormalized</text>
</g>
<!-- src_census&#45;&gt;lake -->
<g id="edge10" class="edge">
<title>src_census&#45;&gt;lake</title>
<path fill="none" stroke="black" d="M189.34,-1204.65C214.93,-1185.4 247.33,-1161.04 277.2,-1138.58"/>
<polygon fill="black" stroke="black" points="278.34,-1140.34 281.88,-1135.06 275.82,-1136.98 278.34,-1140.34"/>
</g>
<!-- src_bea -->
<g id="node2" class="node">
<title>src_bea</title>
<path fill="#dcf3ea" stroke="#1baf7a" d="M426.45,-1259.85C426.45,-1259.85 299.55,-1259.85 299.55,-1259.85 293.55,-1259.85 287.55,-1253.85 287.55,-1247.85 287.55,-1247.85 287.55,-1234.65 287.55,-1234.65 287.55,-1228.65 293.55,-1222.65 299.55,-1222.65 299.55,-1222.65 426.45,-1222.65 426.45,-1222.65 432.45,-1222.65 438.45,-1228.65 438.45,-1234.65 438.45,-1234.65 438.45,-1247.85 438.45,-1247.85 438.45,-1253.85 432.45,-1259.85 426.45,-1259.85"/>
<text xml:space="preserve" text-anchor="middle" x="363" y="-1242.95" font-family="Helvetica,sans-Serif" font-size="14.00">BEA</text>
<text xml:space="preserve" text-anchor="middle" x="363" y="-1227.95" font-family="Helvetica,sans-Serif" font-size="14.00">Regional Price Parities</text>
</g>
<!-- src_bea&#45;&gt;lake -->
<g id="edge11" class="edge">
<title>src_bea&#45;&gt;lake</title>
<path fill="none" stroke="black" d="M363,-1204.65C363,-1186.26 363,-1163.18 363,-1141.56"/>
<polygon fill="black" stroke="black" points="365.1,-1141.66 363,-1135.66 360.9,-1141.66 365.1,-1141.66"/>
</g>
<!-- src_bls -->
<g id="node3" class="node">
<title>src_bls</title>
<path fill="#f7dce6" stroke="#c2255c" d="M509,-1259.85C509,-1259.85 479,-1259.85 479,-1259.85 473,-1259.85 467,-1253.85 467,-1247.85 467,-1247.85 467,-1234.65 467,-1234.65 467,-1228.65 473,-1222.65 479,-1222.65 479,-1222.65 509,-1222.65 509,-1222.65 515,-1222.65 521,-1228.65 521,-1234.65 521,-1234.65 521,-1247.85 521,-1247.85 521,-1253.85 515,-1259.85 509,-1259.85"/>
<text xml:space="preserve" text-anchor="middle" x="494" y="-1242.95" font-family="Helvetica,sans-Serif" font-size="14.00">BLS</text>
<text xml:space="preserve" text-anchor="middle" x="494" y="-1227.95" font-family="Helvetica,sans-Serif" font-size="14.00">LAUS</text>
</g>
<!-- src_bls&#45;&gt;lake -->
<g id="edge12" class="edge">
<title>src_bls&#45;&gt;lake</title>
<path fill="none" stroke="black" d="M465.94,-1204.65C451.02,-1185.72 432.2,-1161.84 414.74,-1139.69"/>
<polygon fill="black" stroke="black" points="416.67,-1138.75 411.31,-1135.34 413.37,-1141.35 416.67,-1138.75"/>
</g>
<!-- state -->
<g id="node5" class="node">
<title>state</title>
<polygon fill="#2a78d6" stroke="none" points="296.25,-900.7 296.25,-922.45 429.75,-922.45 429.75,-900.7 296.25,-900.7"/>
<text xml:space="preserve" text-anchor="start" x="345.38" y="-906.2" font-family="Helvetica,sans-Serif" font-weight="bold" font-size="15.00" fill="white">state</text>
<text xml:space="preserve" text-anchor="start" x="299.25" y="-888.33" font-family="Helvetica,sans-Serif" font-size="10.00">varchar</text>
<text xml:space="preserve" text-anchor="start" x="337.5" y="-887.2" font-family="Helvetica,sans-Serif" font-size="13.00">state_code</text>
<text xml:space="preserve" text-anchor="start" x="413.25" y="-888.33" font-family="Helvetica,sans-Serif" font-size="10.00" fill="#8f8d87">PK</text>
<text xml:space="preserve" text-anchor="start" x="299.25" y="-868.83" font-family="Helvetica,sans-Serif" font-size="10.00">varchar</text>
<text xml:space="preserve" text-anchor="start" x="337.5" y="-867.7" font-family="Helvetica,sans-Serif" font-size="13.00">state_name</text>
<polygon fill="none" stroke="#c3c2b7" points="295.25,-860.7 295.25,-923.45 430.75,-923.45 430.75,-860.7 295.25,-860.7"/>
</g>
<!-- lake&#45;&gt;state -->
<g id="edge13" class="edge">
<title>lake&#45;&gt;state</title>
<path fill="none" stroke="black" d="M363,-1036.45C363,-1018.26 363,-995.34 363,-973.19"/>
<polygon fill="black" stroke="black" points="365.1,-973.46 363,-967.46 360.9,-973.46 365.1,-973.46"/>
</g>
<!-- county -->
<g id="node6" class="node">
<title>county</title>
<polygon fill="#2a78d6" stroke="none" points="291,-772.95 291,-794.7 435,-794.7 435,-772.95 291,-772.95"/>
<text xml:space="preserve" text-anchor="start" x="338.62" y="-778.45" font-family="Helvetica,sans-Serif" font-weight="bold" font-size="15.00" fill="white">county</text>
<text xml:space="preserve" text-anchor="start" x="294" y="-760.58" font-family="Helvetica,sans-Serif" font-size="10.00">bigint</text>
<text xml:space="preserve" text-anchor="start" x="332.25" y="-759.45" font-family="Helvetica,sans-Serif" font-size="13.00">county_fips</text>
<text xml:space="preserve" text-anchor="start" x="418.5" y="-760.58" font-family="Helvetica,sans-Serif" font-size="10.00" fill="#8f8d87">PK</text>
<text xml:space="preserve" text-anchor="start" x="294" y="-741.08" font-family="Helvetica,sans-Serif" font-size="10.00">varchar</text>
<text xml:space="preserve" text-anchor="start" x="332.25" y="-739.95" font-family="Helvetica,sans-Serif" font-size="13.00">county_name</text>
<text xml:space="preserve" text-anchor="start" x="294" y="-721.58" font-family="Helvetica,sans-Serif" font-size="10.00">varchar</text>
<text xml:space="preserve" text-anchor="start" x="332.25" y="-720.45" font-family="Helvetica,sans-Serif" font-size="13.00">state_code</text>
<text xml:space="preserve" text-anchor="start" x="418.5" y="-721.58" font-family="Helvetica,sans-Serif" font-size="10.00" fill="#8f8d87">FK</text>
<polygon fill="none" stroke="#c3c2b7" points="290,-713.45 290,-795.7 436,-795.7 436,-713.45 290,-713.45"/>
</g>
<!-- state&#45;&gt;county -->
<g id="edge1" class="edge">
<title>state&#45;&gt;county</title>
<path fill="none" stroke="black" d="M363,-861C363,-843.93 363,-822.17 363,-802.86"/>
<polygon fill="black" stroke="black" points="365.1,-803.1 363,-797.1 360.9,-803.1 365.1,-803.1"/>
</g>
<!-- county_baseline -->
<g id="node7" class="node">
<title>county_baseline</title>
<polygon fill="#2a78d6" stroke="none" points="223.38,-625.7 223.38,-647.45 468.62,-647.45 468.62,-625.7 223.38,-625.7"/>
<text xml:space="preserve" text-anchor="start" x="287.5" y="-631.2" font-family="Helvetica,sans-Serif" font-weight="bold" font-size="15.00" fill="white">county_baseline</text>
<text xml:space="preserve" text-anchor="start" x="226.38" y="-613.33" font-family="Helvetica,sans-Serif" font-size="10.00">bigint</text>
<text xml:space="preserve" text-anchor="start" x="266.88" y="-612.2" font-family="Helvetica,sans-Serif" font-size="13.00">county_fips</text>
<text xml:space="preserve" text-anchor="start" x="436.38" y="-613.33" font-family="Helvetica,sans-Serif" font-size="10.00" fill="#8f8d87">PK,FK</text>
<text xml:space="preserve" text-anchor="start" x="226.38" y="-593.83" font-family="Helvetica,sans-Serif" font-size="10.00">int</text>
<text xml:space="preserve" text-anchor="start" x="266.88" y="-592.7" font-family="Helvetica,sans-Serif" font-size="13.00">year</text>
<text xml:space="preserve" text-anchor="start" x="436.38" y="-593.83" font-family="Helvetica,sans-Serif" font-size="10.00" fill="#8f8d87">PK</text>
<text xml:space="preserve" text-anchor="start" x="226.38" y="-574.33" font-family="Helvetica,sans-Serif" font-size="10.00">numeric</text>
<text xml:space="preserve" text-anchor="start" x="266.88" y="-573.2" font-family="Helvetica,sans-Serif" font-size="13.00">population</text>
<text xml:space="preserve" text-anchor="start" x="226.38" y="-554.83" font-family="Helvetica,sans-Serif" font-size="10.00">numeric</text>
<text xml:space="preserve" text-anchor="start" x="266.88" y="-553.7" font-family="Helvetica,sans-Serif" font-size="13.00">median_household_income</text>
<text xml:space="preserve" text-anchor="start" x="226.38" y="-535.33" font-family="Helvetica,sans-Serif" font-size="10.00">numeric</text>
<text xml:space="preserve" text-anchor="start" x="266.88" y="-534.2" font-family="Helvetica,sans-Serif" font-size="13.00">poverty_rate</text>
<text xml:space="preserve" text-anchor="start" x="226.38" y="-515.83" font-family="Helvetica,sans-Serif" font-size="10.00">numeric</text>
<text xml:space="preserve" text-anchor="start" x="266.88" y="-514.7" font-family="Helvetica,sans-Serif" font-size="13.00">unemployment_rate</text>
<polygon fill="none" stroke="#c3c2b7" points="222.38,-507.7 222.38,-648.45 469.62,-648.45 469.62,-507.7 222.38,-507.7"/>
</g>
<!-- county&#45;&gt;county_baseline -->
<g id="edge2" class="edge">
<title>county&#45;&gt;county_baseline</title>
<path fill="none" stroke="black" d="M359.1,-713.54C357.42,-696.33 355.41,-675.62 353.46,-655.67"/>
<polygon fill="black" stroke="black" points="355.57,-655.63 352.9,-649.86 351.39,-656.04 355.57,-655.63"/>
</g>
<!-- county_task_exposure -->
<g id="node8" class="node">
<title>county_task_exposure</title>
<polygon fill="#2a78d6" stroke="none" points="499.75,-625.7 499.75,-647.45 768.25,-647.45 768.25,-625.7 499.75,-625.7"/>
<text xml:space="preserve" text-anchor="start" x="553.38" y="-631.2" font-family="Helvetica,sans-Serif" font-weight="bold" font-size="15.00" fill="white">county_task_exposure</text>
<text xml:space="preserve" text-anchor="start" x="502.75" y="-613.33" font-family="Helvetica,sans-Serif" font-size="10.00">bigint</text>
<text xml:space="preserve" text-anchor="start" x="543.25" y="-612.2" font-family="Helvetica,sans-Serif" font-size="13.00">county_fips</text>
<text xml:space="preserve" text-anchor="start" x="722.5" y="-613.33" font-family="Helvetica,sans-Serif" font-size="10.00" fill="#8f8d87">PK,FK</text>
<text xml:space="preserve" text-anchor="start" x="502.75" y="-593.83" font-family="Helvetica,sans-Serif" font-size="10.00">int</text>
<text xml:space="preserve" text-anchor="start" x="543.25" y="-592.7" font-family="Helvetica,sans-Serif" font-size="13.00">year</text>
<text xml:space="preserve" text-anchor="start" x="722.5" y="-593.83" font-family="Helvetica,sans-Serif" font-size="10.00" fill="#8f8d87">PK</text>
<text xml:space="preserve" text-anchor="start" x="502.75" y="-574.33" font-family="Helvetica,sans-Serif" font-size="10.00">numeric</text>
<text xml:space="preserve" text-anchor="start" x="543.25" y="-573.2" font-family="Helvetica,sans-Serif" font-size="13.00">routine_cognitive_share</text>
<text xml:space="preserve" text-anchor="start" x="722.5" y="-574.33" font-family="Helvetica,sans-Serif" font-size="10.00" fill="#8f8d87">generated</text>
<text xml:space="preserve" text-anchor="start" x="502.75" y="-554.83" font-family="Helvetica,sans-Serif" font-size="10.00">numeric</text>
<text xml:space="preserve" text-anchor="start" x="543.25" y="-553.7" font-family="Helvetica,sans-Serif" font-size="13.00">routine_manual_share</text>
<text xml:space="preserve" text-anchor="start" x="722.5" y="-554.83" font-family="Helvetica,sans-Serif" font-size="10.00" fill="#8f8d87">generated</text>
<text xml:space="preserve" text-anchor="start" x="502.75" y="-535.33" font-family="Helvetica,sans-Serif" font-size="10.00">numeric</text>
<text xml:space="preserve" text-anchor="start" x="543.25" y="-534.2" font-family="Helvetica,sans-Serif" font-size="13.00">non_routine_cognitive_share</text>
<text xml:space="preserve" text-anchor="start" x="722.5" y="-535.33" font-family="Helvetica,sans-Serif" font-size="10.00" fill="#8f8d87">generated</text>
<text xml:space="preserve" text-anchor="start" x="502.75" y="-515.83" font-family="Helvetica,sans-Serif" font-size="10.00">numeric</text>
<text xml:space="preserve" text-anchor="start" x="543.25" y="-514.7" font-family="Helvetica,sans-Serif" font-size="13.00">non_routine_manual_share</text>
<text xml:space="preserve" text-anchor="start" x="722.5" y="-515.83" font-family="Helvetica,sans-Serif" font-size="10.00" fill="#8f8d87">generated</text>
<polygon fill="none" stroke="#c3c2b7" points="498.75,-507.7 498.75,-648.45 769.25,-648.45 769.25,-507.7 498.75,-507.7"/>
</g>
<!-- county&#45;&gt;county_task_exposure -->
<g id="edge3" class="edge">
<title>county&#45;&gt;county_task_exposure</title>
<path fill="none" stroke="black" d="M425.17,-713.54C453.42,-695.35 487.75,-673.25 520.34,-652.26"/>
<polygon fill="black" stroke="black" points="521.23,-654.19 525.13,-649.17 518.95,-650.66 521.23,-654.19"/>
</g>
<!-- county_affordability -->
<g id="node9" class="node">
<title>county_affordability</title>
<polygon fill="#2a78d6" stroke="none" points="798.88,-596.45 798.88,-618.2 993.12,-618.2 993.12,-596.45 798.88,-596.45"/>
<text xml:space="preserve" text-anchor="start" x="824" y="-601.95" font-family="Helvetica,sans-Serif" font-weight="bold" font-size="15.00" fill="white">county_affordability</text>
<text xml:space="preserve" text-anchor="start" x="801.88" y="-584.08" font-family="Helvetica,sans-Serif" font-size="10.00">bigint</text>
<text xml:space="preserve" text-anchor="start" x="842.38" y="-582.95" font-family="Helvetica,sans-Serif" font-size="13.00">county_fips</text>
<text xml:space="preserve" text-anchor="start" x="960.88" y="-584.08" font-family="Helvetica,sans-Serif" font-size="10.00" fill="#8f8d87">PK,FK</text>
<text xml:space="preserve" text-anchor="start" x="801.88" y="-564.58" font-family="Helvetica,sans-Serif" font-size="10.00">int</text>
<text xml:space="preserve" text-anchor="start" x="842.38" y="-563.45" font-family="Helvetica,sans-Serif" font-size="13.00">year</text>
<text xml:space="preserve" text-anchor="start" x="960.88" y="-564.58" font-family="Helvetica,sans-Serif" font-size="10.00" fill="#8f8d87">PK</text>
<text xml:space="preserve" text-anchor="start" x="801.88" y="-545.08" font-family="Helvetica,sans-Serif" font-size="10.00">numeric</text>
<text xml:space="preserve" text-anchor="start" x="842.38" y="-543.95" font-family="Helvetica,sans-Serif" font-size="13.00">affordability_salary</text>
<polygon fill="none" stroke="#c3c2b7" points="797.88,-536.95 797.88,-619.2 994.12,-619.2 994.12,-536.95 797.88,-536.95"/>
</g>
<!-- county&#45;&gt;county_affordability -->
<g id="edge4" class="edge">
<title>county&#45;&gt;county_affordability</title>
<path fill="none" stroke="black" d="M435.95,-742.44C521.67,-727.76 667.06,-697.84 784,-648.45 800.46,-641.5 817.31,-632.33 832.77,-622.94"/>
<polygon fill="black" stroke="black" points="833.55,-624.92 837.56,-619.99 831.35,-621.35 833.55,-624.92"/>
</g>
<!-- county_cbsa_code -->
<g id="node10" class="node">
<title>county_cbsa_code</title>
<polygon fill="#2a78d6" stroke="none" points="44.12,-586.7 44.12,-608.45 191.88,-608.45 191.88,-586.7 44.12,-586.7"/>
<text xml:space="preserve" text-anchor="start" x="51.25" y="-592.2" font-family="Helvetica,sans-Serif" font-weight="bold" font-size="15.00" fill="white">county_cbsa_code</text>
<text xml:space="preserve" text-anchor="start" x="47.12" y="-574.33" font-family="Helvetica,sans-Serif" font-size="10.00">bigint</text>
<text xml:space="preserve" text-anchor="start" x="85.38" y="-573.2" font-family="Helvetica,sans-Serif" font-size="13.00">county_fips</text>
<text xml:space="preserve" text-anchor="start" x="159.62" y="-574.33" font-family="Helvetica,sans-Serif" font-size="10.00" fill="#8f8d87">PK,FK</text>
<text xml:space="preserve" text-anchor="start" x="47.12" y="-554.83" font-family="Helvetica,sans-Serif" font-size="10.00">varchar</text>
<text xml:space="preserve" text-anchor="start" x="85.38" y="-553.7" font-family="Helvetica,sans-Serif" font-size="13.00">cbsa_code</text>
<text xml:space="preserve" text-anchor="start" x="159.62" y="-554.83" font-family="Helvetica,sans-Serif" font-size="10.00" fill="#8f8d87">PK,FK</text>
<polygon fill="none" stroke="#c3c2b7" points="43.12,-546.7 43.12,-609.45 192.88,-609.45 192.88,-546.7 43.12,-546.7"/>
</g>
<!-- county&#45;&gt;county_cbsa_code -->
<g id="edge5" class="edge">
<title>county&#45;&gt;county_cbsa_code</title>
<path fill="none" stroke="black" d="M302.05,-713.48C273.25,-694.22 238.56,-670.56 208,-648.45 192.76,-637.42 176.39,-624.99 161.84,-613.72"/>
<polygon fill="black" stroke="black" points="163.37,-612.25 157.35,-610.23 160.8,-615.57 163.37,-612.25"/>
</g>
<!-- analysis_table -->
<g id="node13" class="node">
<title>analysis_table</title>
<path fill="#fbe3d3" stroke="#eb6834" d="M581.33,-164.2C581.33,-164.2 396.68,-164.2 396.68,-164.2 390.68,-164.2 384.68,-158.2 384.68,-152.2 384.68,-152.2 384.68,-139 384.68,-139 384.68,-133 390.68,-127 396.68,-127 396.68,-127 581.33,-127 581.33,-127 587.33,-127 593.33,-133 593.33,-139 593.33,-139 593.33,-152.2 593.33,-152.2 593.33,-158.2 587.33,-164.2 581.33,-164.2"/>
<text xml:space="preserve" text-anchor="middle" x="489" y="-147.3" font-family="Helvetica,sans-Serif" font-size="14.00">Analysis ready county year table</text>
<text xml:space="preserve" text-anchor="middle" x="489" y="-132.3" font-family="Helvetica,sans-Serif" font-size="14.00">(joined on county_fips and year)</text>
</g>
<!-- county_baseline&#45;&gt;analysis_table -->
<!-- county_task_exposure&#45;&gt;analysis_table -->
<!-- county_affordability&#45;&gt;analysis_table -->
<g id="edge14" class="edge">
<title>county_affordability&#45;&gt;analysis_table</title>
<path fill="none" stroke="black" d="M553.39,-214.7C552.54,-213.8 551.69,-212.9 550.85,-212.01"/>
<polygon fill="black" stroke="black" points="552.51,-210.72 546.86,-207.8 549.46,-213.6 552.51,-210.72"/>
</g>
<!-- cbsa -->
<g id="node11" class="node">
<title>cbsa</title>
<polygon fill="#2a78d6" stroke="none" points="107.62,-419.95 107.62,-441.7 240.38,-441.7 240.38,-419.95 107.62,-419.95"/>
<text xml:space="preserve" text-anchor="start" x="157.12" y="-425.45" font-family="Helvetica,sans-Serif" font-weight="bold" font-size="15.00" fill="white">cbsa</text>
<text xml:space="preserve" text-anchor="start" x="110.62" y="-407.57" font-family="Helvetica,sans-Serif" font-size="10.00">varchar</text>
<text xml:space="preserve" text-anchor="start" x="148.88" y="-406.45" font-family="Helvetica,sans-Serif" font-size="13.00">cbsa_code</text>
<text xml:space="preserve" text-anchor="start" x="223.88" y="-407.57" font-family="Helvetica,sans-Serif" font-size="10.00" fill="#8f8d87">PK</text>
<text xml:space="preserve" text-anchor="start" x="110.62" y="-388.07" font-family="Helvetica,sans-Serif" font-size="10.00">varchar</text>
<text xml:space="preserve" text-anchor="start" x="148.88" y="-386.95" font-family="Helvetica,sans-Serif" font-size="13.00">cbsa_name</text>
<polygon fill="none" stroke="#c3c2b7" points="106.62,-379.95 106.62,-442.7 241.38,-442.7 241.38,-379.95 106.62,-379.95"/>
</g>
<!-- county_cbsa_code&#45;&gt;cbsa -->
<g id="edge6" class="edge">
<title>county_cbsa_code&#45;&gt;cbsa</title>
<path fill="none" stroke="black" d="M128.27,-546.86C137.6,-519.42 151.38,-478.88 161.37,-449.47"/>
<polygon fill="black" stroke="black" points="163.27,-450.42 163.21,-444.06 159.29,-449.07 163.27,-450.42"/>
</g>
<!-- cbsa_rpp -->
<g id="node12" class="node">
<title>cbsa_rpp</title>
<polygon fill="#2a78d6" stroke="none" points="156.5,-292.2 156.5,-313.95 303.5,-313.95 303.5,-292.2 156.5,-292.2"/>
<text xml:space="preserve" text-anchor="start" x="197" y="-297.7" font-family="Helvetica,sans-Serif" font-weight="bold" font-size="15.00" fill="white">cbsa_rpp</text>
<text xml:space="preserve" text-anchor="start" x="159.5" y="-279.82" font-family="Helvetica,sans-Serif" font-size="10.00">varchar</text>
<text xml:space="preserve" text-anchor="start" x="200" y="-278.7" font-family="Helvetica,sans-Serif" font-size="13.00">cbsa_code</text>
<text xml:space="preserve" text-anchor="start" x="271.25" y="-279.82" font-family="Helvetica,sans-Serif" font-size="10.00" fill="#8f8d87">PK,FK</text>
<text xml:space="preserve" text-anchor="start" x="159.5" y="-260.32" font-family="Helvetica,sans-Serif" font-size="10.00">int</text>
<text xml:space="preserve" text-anchor="start" x="200" y="-259.2" font-family="Helvetica,sans-Serif" font-size="13.00">year</text>
<text xml:space="preserve" text-anchor="start" x="271.25" y="-260.32" font-family="Helvetica,sans-Serif" font-size="10.00" fill="#8f8d87">PK</text>
<text xml:space="preserve" text-anchor="start" x="159.5" y="-240.82" font-family="Helvetica,sans-Serif" font-size="10.00">numeric</text>
<text xml:space="preserve" text-anchor="start" x="200" y="-239.7" font-family="Helvetica,sans-Serif" font-size="13.00">rpp_value</text>
<polygon fill="none" stroke="#c3c2b7" points="155.5,-232.7 155.5,-314.95 304.5,-314.95 304.5,-232.7 155.5,-232.7"/>
</g>
<!-- cbsa&#45;&gt;cbsa_rpp -->
<g id="edge7" class="edge">
<title>cbsa&#45;&gt;cbsa_rpp</title>
<path fill="none" stroke="black" d="M186.43,-380.25C193.55,-363.03 202.64,-341.03 210.67,-321.6"/>
<polygon fill="black" stroke="black" points="212.53,-322.59 212.88,-316.24 208.65,-320.98 212.53,-322.59"/>
</g>
<!-- cbsa_rpp&#45;&gt;analysis_table -->
<!-- models -->
<g id="node14" class="node">
<title>models</title>
<path fill="#fbe3d3" stroke="#eb6834" d="M484.82,-62C484.82,-62 339.18,-62 339.18,-62 333.18,-62 327.18,-56 327.18,-50 327.18,-50 327.18,-38 327.18,-38 327.18,-32 333.18,-26 339.18,-26 339.18,-26 484.82,-26 484.82,-26 490.82,-26 496.82,-32 496.82,-38 496.82,-38 496.82,-50 496.82,-50 496.82,-56 490.82,-62 484.82,-62"/>
<text xml:space="preserve" text-anchor="middle" x="412" y="-38.2" font-family="Helvetica,sans-Serif" font-size="14.00">Statistical and ML models</text>
</g>
<!-- analysis_table&#45;&gt;models -->
<g id="edge8" class="edge">
<title>analysis_table&#45;&gt;models</title>
<path fill="none" stroke="black" d="M475.23,-126.79C462.56,-110.41 443.7,-86 429.87,-68.11"/>
<polygon fill="black" stroke="black" points="431.65,-66.98 426.31,-63.52 428.32,-69.55 431.65,-66.98"/>
</g>
<!-- figures -->
<g id="node15" class="node">
<title>figures</title>
<path fill="#fbe3d3" stroke="#eb6834" d="M639.7,-62C639.7,-62 538.3,-62 538.3,-62 532.3,-62 526.3,-56 526.3,-50 526.3,-50 526.3,-38 526.3,-38 526.3,-32 532.3,-26 538.3,-26 538.3,-26 639.7,-26 639.7,-26 645.7,-26 651.7,-32 651.7,-38 651.7,-38 651.7,-50 651.7,-50 651.7,-56 645.7,-62 639.7,-62"/>
<text xml:space="preserve" text-anchor="middle" x="589" y="-38.2" font-family="Helvetica,sans-Serif" font-size="14.00">Figures and tables</text>
</g>
<!-- analysis_table&#45;&gt;figures -->
<g id="edge9" class="edge">
<title>analysis_table&#45;&gt;figures</title>
<path fill="none" stroke="black" d="M506.88,-126.79C523.62,-110.12 548.69,-85.15 566.72,-67.19"/>
<polygon fill="black" stroke="black" points="567.77,-69.11 570.54,-63.39 564.81,-66.13 567.77,-69.11"/>
</g>
</g>
</svg>
